<svg width="34" height="34" viewBox="0 0 34 34" fill="none" class="size-10" xmlns="http://www.w3.org/2000/svg">
<path d="M32.2975 0.478007C33.0411 0.278768 33.7215 0.959182 33.5223 1.70275L30.3843 13.414C30.185 14.1576 29.2556 14.4066 28.7112 13.8623L20.138 5.28905C19.5937 4.74472 19.8427 3.81526 20.5863 3.61602L32.2975 0.478007Z" fill="white"></path>
<path d="M23.2929 16.293C23.6834 16.6835 23.6834 17.3167 23.2929 17.7072L17.7071 23.293C17.3166 23.6835 16.6834 23.6835 16.2929 23.293L10.7071 17.7072C10.3166 17.3167 10.3166 16.6835 10.7071 16.293L16.2929 10.7072C16.6834 10.3167 17.3166 10.3167 17.7071 10.7072L23.2929 16.293Z" fill="white"></path>
<path d="M1.70248 33.5226C0.958906 33.7218 0.278494 33.0414 0.477733 32.2978L3.61575 20.5866C3.81499 19.843 4.74445 19.594 5.28878 20.1383L13.862 28.7115C14.4063 29.2558 14.1573 30.1853 13.4137 30.3845L1.70248 33.5226Z" fill="white"></path>
<path d="M33.5223 32.2978C33.7215 33.0414 33.0411 33.7218 32.2975 33.5226L20.5863 30.3845C19.8427 30.1853 19.5937 29.2558 20.138 28.7115L28.7112 20.1383C29.2556 19.594 30.185 19.843 30.3843 20.5866L33.5223 32.2978Z" fill="white"></path>
<path d="M0.477732 1.70275C0.278493 0.959182 0.958908 0.278769 1.70248 0.478008L13.4137 3.61602C14.1573 3.81526 14.4063 4.74473 13.862 5.28906L5.28878 13.8623C4.74445 14.4066 3.81498 14.1576 3.61575 13.414L0.477732 1.70275Z" fill="white"></path>
</svg>