<svg width="341" height="33" viewBox="0 0 341 33" fill="none" class="w-auto h-3.5 sm:h-4" xmlns="http://www.w3.org/2000/svg">
<path d="M29.8206 1.03289C30.5167 0.846377 31.1536 1.48334 30.9671 2.17942L28.0295 13.1427C27.843 13.8388 26.9729 14.072 26.4633 13.5624L18.4376 5.53669C17.928 5.02712 18.1612 4.15702 18.8573 3.9705L29.8206 1.03289Z" fill="white"></path>
<path d="M21.391 15.8379C21.7566 16.2034 21.7566 16.7962 21.391 17.1618L16.162 22.3908C15.7964 22.7564 15.2036 22.7564 14.8381 22.3908L9.609 17.1618C9.24342 16.7962 9.24342 16.2034 9.609 15.8379L14.8381 10.6088C15.2036 10.2432 15.7964 10.2432 16.162 10.6088L21.391 15.8379Z" fill="white"></path>
<path d="M1.17942 31.9671C0.483337 32.1536 -0.153623 31.5167 0.0328924 30.8206L2.9705 19.8573C3.15702 19.1612 4.02712 18.928 4.53669 19.4376L12.5624 27.4633C13.072 27.9729 12.8388 28.843 12.1427 29.0295L1.17942 31.9671Z" fill="white"></path>
<path d="M30.9671 30.8206C31.1536 31.5167 30.5167 32.1536 29.8206 31.9671L18.8573 29.0295C18.1612 28.843 17.928 27.9729 18.4376 27.4633L26.4633 19.4376C26.9729 18.928 27.843 19.1612 28.0295 19.8573L30.9671 30.8206Z" fill="white"></path>
<path d="M0.032892 2.17942C-0.153623 1.48334 0.483338 0.846378 1.17942 1.03289L12.1427 3.97051C12.8388 4.15702 13.072 5.02712 12.5624 5.53669L4.53669 13.5624C4.02712 14.072 3.15702 13.8388 2.9705 13.1427L0.032892 2.17942Z" fill="white"></path>
<path d="M42.4062 32.1875C42.2812 32.0625 42.2188 31.7969 42.2188 31.3906C42.2188 30.7656 42.2812 30.4531 42.4062 30.4531C42.6562 30.4531 43.0156 30.4062 43.4844 30.3125C43.9531 30.2188 44.3906 30.0938 44.7969 29.9375C45.2031 29.75 45.4375 29.5781 45.5 29.4219C45.6875 28.7031 45.7812 27.3281 45.7812 25.2969V7.39062C45.7812 5.48438 45.6562 4.3125 45.4062 3.875C45.3125 3.6875 45.0625 3.51563 44.6562 3.35938C44.2812 3.17188 43.8906 3.01562 43.4844 2.89062C43.0781 2.76563 42.75 2.70312 42.5 2.70312C42.375 2.70312 42.3125 2.4375 42.3125 1.90625C42.3125 1.34375 42.3438 1.03125 42.4062 0.96875L49.2031 1.25C49.5156 1.28125 50.2188 1.26563 51.3125 1.20312C52.4062 1.14062 53.8906 1.0625 55.7656 0.96875C55.8594 1.25 55.9062 1.53125 55.9062 1.8125C55.9062 2.40625 55.8438 2.70312 55.7188 2.70312C55.5312 2.70312 55.2031 2.76563 54.7344 2.89062C54.2656 3.01562 53.8125 3.17188 53.375 3.35938C52.9688 3.51563 52.7344 3.67187 52.6719 3.82812C52.5469 4.23437 52.4531 4.76562 52.3906 5.42188C52.3594 6.04688 52.3438 6.76562 52.3438 7.57812V25.3438C52.3438 26.8438 52.4688 27.9688 52.7188 28.7188C52.8438 29.2188 53.9062 29.4688 55.9062 29.4688H57.125C59.0625 29.4688 60.8125 29.0625 62.375 28.25C62.9062 27.9688 63.5 27.4375 64.1562 26.6562C64.8438 25.875 65.375 25 65.75 24.0312C65.8125 23.8438 66.0312 23.75 66.4062 23.75C67.1562 23.75 67.625 23.8438 67.8125 24.0312C66.25 28.3438 65.4062 31.0312 65.2812 32.0938C64.4062 32.0938 63.2656 32.0781 61.8594 32.0469C60.4844 32.0469 58.8438 32.0312 56.9375 32C55.0312 31.9688 53.4375 31.9375 52.1562 31.9062C50.9062 31.875 49.9375 31.875 49.25 31.9062L42.4062 32.1875ZM68.0375 32.1875C67.9125 32.0625 67.85 31.8125 67.85 31.4375C67.85 30.7812 67.8969 30.4531 67.9906 30.4531C68.2406 30.4531 68.6 30.3906 69.0688 30.2656C69.5375 30.1406 69.975 29.9844 70.3813 29.7969C70.7875 29.6094 71.0219 29.4375 71.0844 29.2812C71.2094 28.8438 71.2875 28.3125 71.3188 27.6875C71.3813 27.0625 71.4125 26.3438 71.4125 25.5312V7.53125C71.4125 5.53125 71.2875 4.3125 71.0375 3.875C70.9438 3.6875 70.6938 3.51563 70.2875 3.35938C69.9125 3.17188 69.5219 3.01562 69.1156 2.89062C68.7094 2.76563 68.3813 2.70312 68.1313 2.70312C68.0063 2.70312 67.9438 2.4375 67.9438 1.90625C67.9438 1.34375 67.975 1.03125 68.0375 0.96875L70.2875 1.10938C70.975 1.17188 71.5375 1.21875 71.975 1.25C72.4125 1.28125 72.8344 1.29688 73.2406 1.29688C73.6781 1.26563 74.2094 1.25 74.8344 1.25C75.4594 1.25 77.6469 1.15625 81.3969 0.96875C81.4906 1.25 81.5375 1.53125 81.5375 1.8125C81.5375 2.40625 81.475 2.70312 81.35 2.70312C81.1625 2.70312 80.8344 2.76563 80.3656 2.89062C79.8969 3.01562 79.4438 3.17188 79.0063 3.35938C78.6 3.51563 78.3656 3.67187 78.3031 3.82812C78.2094 4.20312 78.1313 4.73438 78.0688 5.42188C78.0063 6.07812 77.975 6.64062 77.975 7.10938V25.1562C77.975 26.0312 78.0063 26.8125 78.0688 27.5C78.1313 28.1875 78.225 28.7812 78.35 29.2812C78.4125 29.4062 78.6313 29.5625 79.0063 29.75C79.4125 29.9375 79.8344 30.1094 80.2719 30.2656C80.7406 30.3906 81.0688 30.4531 81.2563 30.4531C81.3813 30.4531 81.4438 30.75 81.4438 31.3438C81.4438 31.6562 81.4125 31.9375 81.35 32.1875C81.225 32.1875 80.9281 32.1719 80.4594 32.1406C79.9906 32.1094 79.35 32.0625 78.5375 32C77.725 31.9375 77.0063 31.8906 76.3813 31.8594C75.7563 31.8281 75.2406 31.8125 74.8344 31.8125C74.2719 31.8125 73.5063 31.8438 72.5375 31.9062C71.5688 31.9688 70.6469 32.0156 69.7719 32.0469C68.9281 32.1094 68.35 32.1562 68.0375 32.1875ZM96.5281 32.4219C94.4656 32.4219 92.5281 32.0156 90.7156 31.2031C88.9344 30.3906 87.3563 29.2656 85.9813 27.8281C84.6063 26.3906 83.5281 24.7344 82.7469 22.8594C81.9969 20.9844 81.6219 19 81.6219 16.9062C81.6219 14.6875 82.0125 12.6094 82.7938 10.6719C83.6063 8.73438 84.7156 7.01562 86.1219 5.51562C87.5281 4.01562 89.1531 2.84375 90.9969 2C92.8719 1.15625 94.8875 0.734375 97.0438 0.734375C98.7625 0.734375 100.513 0.859375 102.294 1.10938C104.075 1.32812 105.903 1.65625 107.778 2.09375C107.872 2.09375 107.966 2.45312 108.059 3.17188C108.184 3.85937 108.309 4.6875 108.434 5.65625C108.559 6.59375 108.653 7.46875 108.716 8.28125C108.809 9.0625 108.856 9.5625 108.856 9.78125C108.856 10.0312 108.575 10.1562 108.013 10.1562C107.419 10.1562 106.934 10.0781 106.559 9.92188C106.403 9.32812 106.153 8.71875 105.809 8.09375C105.466 7.46875 104.95 6.76562 104.263 5.98438C103.575 5.20313 102.622 4.57812 101.403 4.10938C100.184 3.60938 98.8094 3.35938 97.2781 3.35938C91.6531 3.35938 88.8406 7.51562 88.8406 15.8281C88.8406 18.1094 89.1531 20.2812 89.7781 22.3438C90.1844 23.6875 90.7938 24.9219 91.6063 26.0469C92.45 27.1719 93.4656 28.0781 94.6531 28.7656C95.8719 29.4531 97.2469 29.7969 98.7781 29.7969C100.184 29.7969 101.184 29.5469 101.778 29.0469C102.122 28.7656 102.294 28.2969 102.294 27.6406V24.3594C102.294 22.7031 102.184 21.5 101.966 20.75C101.747 19.9062 100.716 19.4844 98.8719 19.4844C98.8094 19.4844 98.7469 19.3594 98.6844 19.1094C98.6531 18.8594 98.6531 18.5938 98.6844 18.3125C98.7156 18 98.7625 17.8125 98.825 17.75C100.075 17.8125 101.325 17.875 102.575 17.9375C103.825 18 104.903 18.0312 105.809 18.0312C106.278 18.0312 108.388 17.9375 112.138 17.75C112.231 18.0312 112.278 18.3438 112.278 18.6875C112.278 19.25 112.216 19.5312 112.091 19.5312C111.372 19.5312 110.544 19.7656 109.606 20.2344C109.106 20.4531 108.856 21.6875 108.856 23.9375V26.6562C108.856 27.2188 108.903 27.6406 108.997 27.9219C109.091 28.2031 109.138 28.375 109.138 28.4375C109.138 28.9688 108.809 29.4062 108.153 29.75C106.997 30.3438 106.106 30.7656 105.481 31.0156C104.825 31.2969 103.669 31.6094 102.013 31.9531C100.388 32.2656 98.5594 32.4219 96.5281 32.4219ZM112.503 32.1875C112.378 32.0625 112.316 31.7969 112.316 31.3906C112.316 30.7656 112.347 30.4531 112.409 30.4531C112.659 30.4531 113.019 30.4062 113.488 30.3125C113.988 30.1875 114.441 30.0312 114.847 29.8438C115.253 29.6562 115.488 29.4844 115.55 29.3281C115.769 28.5469 115.878 27.2812 115.878 25.5312V7.625C115.878 5.65625 115.769 4.4375 115.55 3.96875C115.456 3.71875 115.206 3.5 114.8 3.3125C114.425 3.125 114.019 2.98438 113.581 2.89062C113.175 2.76563 112.847 2.70312 112.597 2.70312C112.472 2.70312 112.409 2.39063 112.409 1.76562C112.409 1.29688 112.441 1.03125 112.503 0.96875L119.019 1.25C119.425 1.28125 120.191 1.26563 121.316 1.20312C122.472 1.14062 123.988 1.0625 125.863 0.96875C125.956 1.09375 126.003 1.42187 126.003 1.95312C126.003 2.45312 125.941 2.70312 125.816 2.70312C125.628 2.70312 125.3 2.76563 124.831 2.89062C124.394 3.01562 123.956 3.17188 123.519 3.35938C123.113 3.51563 122.878 3.67187 122.816 3.82812C122.566 4.51562 122.441 5.84375 122.441 7.8125V14.4688L122.534 14.6094L128.159 14.7031C128.597 14.7031 129.269 14.7031 130.175 14.7031C131.081 14.6719 132.238 14.6406 133.644 14.6094C133.706 14.5469 133.738 14.4844 133.738 14.4219V7.625C133.738 5.9375 133.628 4.70312 133.409 3.92188C133.347 3.73438 133.113 3.54688 132.706 3.35938C132.331 3.17188 131.925 3.01562 131.488 2.89062C131.05 2.76563 130.706 2.70312 130.456 2.70312C130.394 2.70312 130.331 2.57813 130.269 2.32812C130.238 2.07812 130.238 1.8125 130.269 1.53125C130.3 1.21875 130.347 1.03125 130.409 0.96875L137.394 1.25C137.863 1.25 139.972 1.15625 143.722 0.96875C143.816 1.25 143.863 1.53125 143.863 1.8125C143.863 2.40625 143.784 2.70312 143.628 2.70312C143.441 2.70312 143.113 2.76563 142.644 2.89062C142.206 3.01562 141.784 3.17188 141.378 3.35938C140.972 3.51563 140.738 3.67187 140.675 3.82812C140.55 4.29688 140.456 4.85938 140.394 5.51562C140.331 6.17188 140.3 6.9375 140.3 7.8125V25.3438C140.3 26.1875 140.331 26.9375 140.394 27.5938C140.456 28.25 140.55 28.8281 140.675 29.3281C140.738 29.4531 140.956 29.6094 141.331 29.7969C141.738 29.9531 142.159 30.0938 142.597 30.2188C143.066 30.3438 143.394 30.4062 143.581 30.4062C143.706 30.4062 143.769 30.7344 143.769 31.3906C143.769 31.6406 143.722 31.9062 143.628 32.1875C143.503 32.1875 143.206 32.1719 142.738 32.1406C142.269 32.1094 141.644 32.0625 140.863 32C140.081 31.9375 139.394 31.8906 138.8 31.8594C138.206 31.8281 137.706 31.8125 137.3 31.8125C136.894 31.8125 136.331 31.8281 135.613 31.8594C134.925 31.8906 134.206 31.9375 133.456 32C132.738 32.0312 132.081 32.0625 131.488 32.0938C130.894 32.1562 130.503 32.1875 130.316 32.1875C130.253 32.0938 130.206 31.9062 130.175 31.625C130.144 31.3438 130.144 31.0781 130.175 30.8281C130.238 30.5781 130.3 30.4531 130.363 30.4531C130.613 30.4531 130.972 30.3906 131.441 30.2656C131.909 30.1406 132.347 29.9844 132.753 29.7969C133.159 29.5781 133.394 29.3906 133.456 29.2344C133.644 28.5156 133.738 27.2812 133.738 25.5312V17.7031L133.644 17.5156L128.159 17.4219C124.284 17.4531 122.347 17.5 122.347 17.5625L122.441 17.6562V25.3438C122.441 26.1562 122.472 26.8906 122.534 27.5469C122.597 28.2031 122.691 28.7812 122.816 29.2812C122.878 29.4062 123.097 29.5625 123.472 29.75C123.878 29.9375 124.3 30.1094 124.738 30.2656C125.206 30.3906 125.534 30.4531 125.722 30.4531C125.847 30.4531 125.909 30.6875 125.909 31.1562C125.941 31.625 125.909 31.9688 125.816 32.1875C124.284 32.0938 122.988 32.0156 121.925 31.9531C120.894 31.8594 119.956 31.8125 119.113 31.8125C118.081 31.8125 117.034 31.8594 115.972 31.9531C114.941 32.0156 113.784 32.0938 112.503 32.1875ZM151.588 32.1875C151.463 32.0625 151.4 31.8125 151.4 31.4375C151.4 30.7812 151.447 30.4531 151.541 30.4531C151.791 30.4531 152.15 30.3906 152.619 30.2656C153.088 30.1406 153.525 29.9844 153.931 29.7969C154.338 29.6094 154.572 29.4375 154.634 29.2812C154.759 28.8438 154.838 28.3281 154.869 27.7344C154.931 27.1406 154.963 26.4531 154.963 25.6719V8.70312C154.963 6.26562 154.838 4.82813 154.588 4.39062L154.353 3.96875C154.228 3.84375 153.822 3.75 153.134 3.6875C152.447 3.59375 151.65 3.54688 150.744 3.54688C149.463 3.54688 148.416 3.90625 147.603 4.625C146.791 5.3125 146.166 6.48437 145.728 8.14062C145.666 8.29688 145.509 8.375 145.259 8.375C144.572 8.375 144.119 8.26562 143.9 8.04688L144.791 0.40625C145.478 0.5625 146.088 0.6875 146.619 0.78125C147.15 0.875 147.619 0.921875 148.025 0.921875C149.619 0.921875 151.322 0.96875 153.134 1.0625C154.978 1.15625 156.697 1.20312 158.291 1.20312C159.884 1.20312 161.603 1.15625 163.447 1.0625C165.291 0.96875 167.009 0.921875 168.603 0.921875C169.009 0.921875 169.478 0.875 170.009 0.78125C170.541 0.6875 171.15 0.5625 171.838 0.40625L172.728 8.09375C172.509 8.3125 172.056 8.42188 171.369 8.42188C171.119 8.42188 170.963 8.34375 170.9 8.1875C170.119 5.09375 168.447 3.54688 165.884 3.54688C163.384 3.54688 162.056 3.82812 161.9 4.39062C161.775 4.82813 161.681 5.39063 161.619 6.07812C161.556 6.76562 161.525 7.59375 161.525 8.5625V25.4844C161.525 26.2656 161.556 26.9688 161.619 27.5938C161.681 28.2188 161.775 28.7812 161.9 29.2812C161.963 29.4062 162.181 29.5625 162.556 29.75C162.963 29.9375 163.384 30.1094 163.822 30.2656C164.291 30.3906 164.619 30.4531 164.806 30.4531C164.931 30.4531 164.994 30.75 164.994 31.3438C164.994 31.6562 164.963 31.9375 164.9 32.1875C164.775 32.1875 164.478 32.1719 164.009 32.1406C163.541 32.1094 162.9 32.0625 162.088 32C161.275 31.9375 160.556 31.8906 159.931 31.8594C159.306 31.8281 158.791 31.8125 158.384 31.8125C157.822 31.8125 157.056 31.8438 156.088 31.9062C155.119 31.9688 154.197 32.0156 153.322 32.0469C152.478 32.1094 151.9 32.1562 151.588 32.1875ZM173 32.1875C172.875 32.0625 172.812 31.7969 172.812 31.3906C172.812 30.7656 172.875 30.4531 173 30.4531C173.25 30.4531 173.609 30.4062 174.078 30.3125C174.547 30.2188 174.984 30.0938 175.391 29.9375C175.797 29.75 176.031 29.5781 176.094 29.4219C176.281 28.7031 176.375 27.3281 176.375 25.2969V7.57812C176.375 5.82812 176.281 4.60937 176.094 3.92188C176.031 3.73438 175.781 3.54688 175.344 3.35938C174.938 3.14063 174.5 2.96875 174.031 2.84375C173.562 2.6875 173.203 2.60938 172.953 2.60938C172.828 2.60938 172.766 2.32812 172.766 1.76562C172.766 1.26563 172.812 0.96875 172.906 0.875C174.156 0.9375 175.344 1 176.469 1.0625C177.625 1.09375 178.734 1.10938 179.797 1.10938L186.875 1.01562C188.031 1.01562 189.203 1.17188 190.391 1.48438C191.578 1.76562 192.734 2.21875 193.859 2.84375C194.953 3.46875 195.844 4.34375 196.531 5.46875C197.219 6.59375 197.562 7.89062 197.562 9.35938C197.562 10.4219 197.328 11.375 196.859 12.2188C196.422 13.0625 195.906 13.7656 195.312 14.3281C194.719 14.8594 194.172 15.2188 193.672 15.4062C193.422 15.5 193.344 15.5938 193.438 15.6875C194.188 15.8125 194.953 16.2031 195.734 16.8594C196.547 17.5156 197.234 18.3906 197.797 19.4844C198.359 20.5469 198.641 21.7969 198.641 23.2344C198.641 25.0156 198.141 26.5781 197.141 27.9219C196.141 29.2656 194.75 30.2969 192.969 31.0156C191.188 31.7031 189.109 32.0312 186.734 32L179.844 31.9062C178.906 31.9062 177.859 31.9375 176.703 32C175.578 32.0312 174.672 32.0625 173.984 32.0938L173 32.1875ZM185.375 14.6094C186.594 14.6094 187.484 14.4688 188.047 14.1875C188.547 13.9375 188.906 13.7031 189.125 13.4844C189.375 13.2656 189.641 12.8125 189.922 12.125C190.234 11.4062 190.391 10.5 190.391 9.40625C190.391 5.53125 188.953 3.59375 186.078 3.59375C184.641 3.59375 183.734 3.65625 183.359 3.78125C183.078 3.8125 182.938 4 182.938 4.34375V13.9531C182.938 14.3906 183.75 14.6094 185.375 14.6094ZM186.781 29.4219C190 29.4219 191.609 27.5312 191.609 23.75C191.609 19.4062 189.688 17.2344 185.844 17.2344C184.875 17.2344 184.078 17.3125 183.453 17.4688C183.109 17.625 182.938 17.7656 182.938 17.8906V28.4375C182.938 28.75 183.047 28.9688 183.266 29.0938C183.578 29.3125 184.75 29.4219 186.781 29.4219ZM198.959 32.1875C198.834 32.0625 198.772 31.7969 198.772 31.3906C198.772 30.7656 198.834 30.4531 198.959 30.4531C199.209 30.4531 199.569 30.4062 200.038 30.3125C200.506 30.2188 200.944 30.0938 201.35 29.9375C201.756 29.75 201.991 29.5781 202.053 29.4219C202.241 28.7031 202.334 27.3281 202.334 25.2969V7.57812C202.334 5.82812 202.241 4.60937 202.053 3.92188C201.991 3.73438 201.741 3.54688 201.303 3.35938C200.897 3.14063 200.459 2.96875 199.991 2.84375C199.522 2.6875 199.163 2.60938 198.913 2.60938C198.788 2.60938 198.725 2.32812 198.725 1.76562C198.725 1.26563 198.772 0.96875 198.866 0.875C200.116 0.9375 201.303 1 202.428 1.0625C203.584 1.09375 204.694 1.10938 205.756 1.10938C207.131 1.10938 209.553 1.0625 213.022 0.96875C214.772 0.9375 216.303 0.921875 217.616 0.921875C218.928 0.890625 220.022 0.875 220.897 0.875C220.928 1.03125 221.053 1.6875 221.272 2.84375C221.491 4 221.819 5.65625 222.256 7.8125C222.1 7.96875 221.741 8.04688 221.178 8.04688C220.834 8.04688 220.616 7.9375 220.522 7.71875C220.147 6.90625 219.584 6.1875 218.834 5.5625C218.116 4.90625 217.319 4.39062 216.444 4.01562C215.6 3.60938 214.772 3.40625 213.959 3.40625H212.178C210.178 3.40625 209.163 3.60938 209.131 4.01562C209.069 4.39062 209.006 4.89062 208.944 5.51562C208.913 6.10937 208.897 6.82812 208.897 7.67188V14.8906C208.897 15.0781 209.569 15.1719 210.913 15.1719H213.397C215.366 15.1719 216.428 15.1094 216.584 14.9844C216.741 14.8281 216.866 14.375 216.959 13.625C217.022 13.125 217.116 12.6719 217.241 12.2656C217.272 12.0469 217.506 11.9375 217.944 11.9375C218.475 11.9375 218.819 12.0156 218.975 12.1719V21.0312C218.85 21.1562 218.522 21.2188 217.991 21.2188C217.584 21.2188 217.334 21.0938 217.241 20.8438C216.866 19.625 216.616 18.875 216.491 18.5938C216.366 18.375 216.272 18.2812 216.209 18.3125C216.178 18.3125 216.084 18.25 215.928 18.125C215.491 17.875 214.272 17.75 212.272 17.75C210.022 17.75 208.897 17.8906 208.897 18.1719V25.3906C208.897 26.8594 209.022 27.9688 209.272 28.7188C209.397 29.2188 210.459 29.4688 212.459 29.4688H213.678C215.616 29.4688 217.366 29.0625 218.928 28.25C219.459 27.9688 220.053 27.4375 220.709 26.6562C221.397 25.875 221.928 25 222.303 24.0312C222.366 23.8438 222.584 23.75 222.959 23.75C223.709 23.75 224.178 23.8438 224.366 24.0312C222.803 28.3438 221.959 31.0312 221.834 32.0938C221.053 32.0938 220.022 32.0781 218.741 32.0469C217.491 32.0469 215.991 32.0312 214.241 32C212.522 31.9688 210.959 31.9375 209.553 31.9062C208.147 31.8438 206.897 31.8438 205.803 31.9062L198.959 32.1875ZM222.434 32.1875C222.309 32.0625 222.247 31.8281 222.247 31.4844C222.247 30.8281 222.278 30.5 222.341 30.5C222.591 30.5 222.966 30.4219 223.466 30.2656C223.966 30.1094 224.45 29.9219 224.919 29.7031C225.419 29.4531 225.731 29.2188 225.856 29C226.106 28.625 226.372 28.1719 226.653 27.6406C226.934 27.0781 227.137 26.625 227.262 26.2812L227.497 25.7188L237.856 1.90625C238.2 1.09375 238.778 0.6875 239.591 0.6875C240.059 0.6875 240.434 0.890625 240.716 1.29688L250.325 25.0625C250.606 25.7812 250.872 26.4688 251.122 27.125C251.403 27.75 251.653 28.3438 251.872 28.9062C251.997 29.2188 252.278 29.5 252.716 29.75C253.153 29.9688 253.622 30.1406 254.122 30.2656C254.653 30.3906 255.059 30.4531 255.341 30.4531C255.466 30.4531 255.528 30.7188 255.528 31.25C255.528 31.75 255.497 32.0625 255.434 32.1875L252.575 32C251.669 31.9375 250.887 31.8906 250.231 31.8594C249.575 31.7969 249.044 31.7812 248.637 31.8125L241.559 32.1875C241.434 32.0625 241.372 31.7344 241.372 31.2031C241.372 30.7031 241.434 30.4531 241.559 30.4531C242.247 30.4531 242.95 30.3125 243.669 30.0312C244.387 29.7188 244.747 29.3125 244.747 28.8125C244.747 28.7812 244.653 28.5 244.466 27.9688C244.309 27.4375 244.012 26.6719 243.575 25.6719L242.169 22.25C242.044 22.125 241.934 22.0625 241.841 22.0625C241.528 22.0312 240.997 22.0156 240.247 22.0156C239.497 22.0156 238.528 22.0156 237.341 22.0156C236.309 22.0156 235.387 22.0156 234.575 22.0156C233.794 22.0156 233.137 22.0312 232.606 22.0625C232.481 22.0625 232.372 22.1406 232.278 22.2969L230.731 25.8594C230.2 27.1094 229.887 28.0156 229.794 28.5781C229.731 29.1406 230.012 29.5781 230.637 29.8906C231.2 30.1719 231.684 30.3438 232.091 30.4062C232.528 30.4375 232.903 30.4531 233.216 30.4531C233.309 30.4844 233.356 30.7344 233.356 31.2031C233.356 31.6094 233.325 31.9375 233.262 32.1875C231.856 32.0938 230.825 32.0156 230.169 31.9531C229.544 31.8906 229.075 31.8594 228.762 31.8594C228.45 31.8281 228.106 31.8281 227.731 31.8594C227.387 31.8906 226.825 31.9375 226.044 32C225.262 32.0312 224.059 32.0938 222.434 32.1875ZM237.341 19.2031C237.966 19.2031 238.544 19.2031 239.075 19.2031C239.637 19.1719 240.169 19.1406 240.669 19.1094L240.809 18.875L237.434 10.4844L233.778 18.875C233.778 19 233.809 19.0625 233.872 19.0625C234.809 19.1562 235.966 19.2031 237.341 19.2031ZM282.988 32.3281C281.456 32.3281 280.05 32.1875 278.769 31.9062C277.519 31.5938 276.519 31.25 275.769 30.875C274.988 30.5 274.222 29.9375 273.472 29.1875C273.097 28.8125 272.753 28.4531 272.441 28.1094C272.128 27.7656 271.784 27.3438 271.409 26.8438C271.066 26.3125 270.613 25.625 270.05 24.7812C269.488 23.9062 268.753 22.75 267.847 21.3125C266.628 19.4688 265.816 18.4688 265.409 18.3125C265.347 18.2812 265.175 18.2656 264.894 18.2656C264.613 18.2656 264.472 18.5156 264.472 19.0156V25.3906C264.472 27.0469 264.581 28.3281 264.8 29.2344C264.863 29.4844 265.128 29.7031 265.597 29.8906C266.066 30.0781 266.581 30.2188 267.144 30.3125C267.706 30.4062 268.144 30.4531 268.456 30.4531C268.581 30.4531 268.644 30.75 268.644 31.3438C268.644 31.6562 268.613 31.9375 268.55 32.1875C266.675 32.0938 265.144 32.0156 263.956 31.9531C262.769 31.8906 261.909 31.875 261.378 31.9062L254.534 32.1875C254.409 32.0625 254.347 31.7969 254.347 31.3906C254.347 30.7656 254.409 30.4531 254.534 30.4531C254.784 30.4531 255.144 30.4062 255.613 30.3125C256.081 30.2188 256.519 30.0938 256.925 29.9375C257.331 29.75 257.566 29.5781 257.628 29.4219C257.816 28.7031 257.909 27.3281 257.909 25.2969V7.57812C257.909 5.82812 257.816 4.60937 257.628 3.92188C257.566 3.73438 257.316 3.54688 256.878 3.35938C256.472 3.14063 256.034 2.96875 255.566 2.84375C255.097 2.6875 254.738 2.60938 254.488 2.60938C254.363 2.60938 254.3 2.32812 254.3 1.76562C254.3 1.26563 254.347 0.96875 254.441 0.875C255.878 0.9375 257.159 1 258.284 1.0625C259.441 1.09375 260.456 1.10938 261.331 1.10938C262.831 1.07813 264.003 1.0625 264.847 1.0625C265.691 1.0625 266.331 1.0625 266.769 1.0625C267.206 1.0625 267.581 1.0625 267.894 1.0625C269.144 1.0625 270.394 1.21875 271.644 1.53125C272.925 1.84375 274.097 2.32812 275.159 2.98438C276.222 3.60938 277.066 4.42187 277.691 5.42188C278.347 6.39062 278.675 7.5625 278.675 8.9375C278.675 10.3125 278.394 11.5938 277.831 12.7812C277.269 13.9688 276.534 14.9688 275.628 15.7812C274.753 16.5938 273.847 17.1562 272.909 17.4688C272.659 17.5625 272.613 17.7344 272.769 17.9844C273.456 19.1406 273.988 20.0156 274.363 20.6094C274.738 21.2031 275.05 21.6875 275.3 22.0625C275.581 22.4062 275.909 22.8438 276.284 23.375C276.659 23.875 277.191 24.6406 277.878 25.6719C278.409 26.4219 279.034 27.1719 279.753 27.9219C280.503 28.6406 281.3 29.25 282.144 29.75C283.019 30.2188 283.847 30.4531 284.628 30.4531C284.753 30.5781 284.816 30.8594 284.816 31.2969C284.816 31.6719 284.753 31.9844 284.628 32.2344C284.409 32.2656 284.159 32.2812 283.878 32.2812C283.628 32.3125 283.331 32.3281 282.988 32.3281ZM266.441 15.6875H267.706C268.925 15.6875 269.863 15.1562 270.519 14.0938C271.206 13.0312 271.55 11.625 271.55 9.875C271.55 5.71875 270.097 3.64062 267.191 3.64062C266.097 3.64062 265.378 3.76562 265.034 4.01562C264.659 4.29688 264.472 5.82812 264.472 8.60938V13.6719C264.472 14.5469 264.644 15.1094 264.988 15.3594C265.363 15.5781 265.847 15.6875 266.441 15.6875ZM284.103 32.1875C283.978 32.0625 283.916 31.7969 283.916 31.3906C283.916 30.7656 283.978 30.4531 284.103 30.4531C284.353 30.4531 284.712 30.4062 285.181 30.3125C285.65 30.2188 286.087 30.0938 286.494 29.9375C286.9 29.75 287.134 29.5781 287.197 29.4219C287.384 28.7031 287.478 27.3281 287.478 25.2969V7.57812C287.478 5.82812 287.384 4.60937 287.197 3.92188C287.134 3.73438 286.884 3.54688 286.447 3.35938C286.041 3.14063 285.603 2.96875 285.134 2.84375C284.666 2.6875 284.306 2.60938 284.056 2.60938C283.931 2.60938 283.869 2.32812 283.869 1.76562C283.869 1.26563 283.916 0.96875 284.009 0.875C285.259 0.9375 286.447 1 287.572 1.0625C288.728 1.09375 289.837 1.10938 290.9 1.10938C292.275 1.10938 294.697 1.0625 298.166 0.96875C299.916 0.9375 301.447 0.921875 302.759 0.921875C304.072 0.890625 305.166 0.875 306.041 0.875C306.072 1.03125 306.197 1.6875 306.416 2.84375C306.634 4 306.962 5.65625 307.4 7.8125C307.244 7.96875 306.884 8.04688 306.322 8.04688C305.978 8.04688 305.759 7.9375 305.666 7.71875C305.291 6.90625 304.728 6.1875 303.978 5.5625C303.259 4.90625 302.462 4.39062 301.587 4.01562C300.744 3.60938 299.916 3.40625 299.103 3.40625H297.322C295.322 3.40625 294.306 3.60938 294.275 4.01562C294.212 4.39062 294.15 4.89062 294.087 5.51562C294.056 6.10937 294.041 6.82812 294.041 7.67188V14.8906C294.041 15.0781 294.712 15.1719 296.056 15.1719H298.541C300.509 15.1719 301.572 15.1094 301.728 14.9844C301.884 14.8281 302.009 14.375 302.103 13.625C302.166 13.125 302.259 12.6719 302.384 12.2656C302.416 12.0469 302.65 11.9375 303.087 11.9375C303.619 11.9375 303.962 12.0156 304.119 12.1719V21.0312C303.994 21.1562 303.666 21.2188 303.134 21.2188C302.728 21.2188 302.478 21.0938 302.384 20.8438C302.009 19.625 301.759 18.875 301.634 18.5938C301.509 18.375 301.416 18.2812 301.353 18.3125C301.322 18.3125 301.228 18.25 301.072 18.125C300.634 17.875 299.416 17.75 297.416 17.75C295.166 17.75 294.041 17.8906 294.041 18.1719V25.3906C294.041 26.8594 294.166 27.9688 294.416 28.7188C294.541 29.2188 295.603 29.4688 297.603 29.4688H298.822C300.759 29.4688 302.509 29.0625 304.072 28.25C304.603 27.9688 305.197 27.4375 305.853 26.6562C306.541 25.875 307.072 25 307.447 24.0312C307.509 23.8438 307.728 23.75 308.103 23.75C308.853 23.75 309.322 23.8438 309.509 24.0312C307.947 28.3438 307.103 31.0312 306.978 32.0938C306.197 32.0938 305.166 32.0781 303.884 32.0469C302.634 32.0469 301.134 32.0312 299.384 32C297.666 31.9688 296.103 31.9375 294.697 31.9062C293.291 31.8438 292.041 31.8438 290.947 31.9062L284.103 32.1875ZM338.188 32.3281C336.656 32.3281 335.25 32.1875 333.969 31.9062C332.719 31.5938 331.719 31.25 330.969 30.875C330.188 30.5 329.422 29.9375 328.672 29.1875C328.297 28.8125 327.953 28.4531 327.641 28.1094C327.328 27.7656 326.984 27.3438 326.609 26.8438C326.266 26.3125 325.812 25.625 325.25 24.7812C324.688 23.9062 323.953 22.75 323.047 21.3125C321.828 19.4688 321.016 18.4688 320.609 18.3125C320.547 18.2812 320.375 18.2656 320.094 18.2656C319.812 18.2656 319.672 18.5156 319.672 19.0156V25.3906C319.672 27.0469 319.781 28.3281 320 29.2344C320.062 29.4844 320.328 29.7031 320.797 29.8906C321.266 30.0781 321.781 30.2188 322.344 30.3125C322.906 30.4062 323.344 30.4531 323.656 30.4531C323.781 30.4531 323.844 30.75 323.844 31.3438C323.844 31.6562 323.812 31.9375 323.75 32.1875C321.875 32.0938 320.344 32.0156 319.156 31.9531C317.969 31.8906 317.109 31.875 316.578 31.9062L309.734 32.1875C309.609 32.0625 309.547 31.7969 309.547 31.3906C309.547 30.7656 309.609 30.4531 309.734 30.4531C309.984 30.4531 310.344 30.4062 310.812 30.3125C311.281 30.2188 311.719 30.0938 312.125 29.9375C312.531 29.75 312.766 29.5781 312.828 29.4219C313.016 28.7031 313.109 27.3281 313.109 25.2969V7.57812C313.109 5.82812 313.016 4.60937 312.828 3.92188C312.766 3.73438 312.516 3.54688 312.078 3.35938C311.672 3.14063 311.234 2.96875 310.766 2.84375C310.297 2.6875 309.938 2.60938 309.688 2.60938C309.562 2.60938 309.5 2.32812 309.5 1.76562C309.5 1.26563 309.547 0.96875 309.641 0.875C311.078 0.9375 312.359 1 313.484 1.0625C314.641 1.09375 315.656 1.10938 316.531 1.10938C318.031 1.07813 319.203 1.0625 320.047 1.0625C320.891 1.0625 321.531 1.0625 321.969 1.0625C322.406 1.0625 322.781 1.0625 323.094 1.0625C324.344 1.0625 325.594 1.21875 326.844 1.53125C328.125 1.84375 329.297 2.32812 330.359 2.98438C331.422 3.60938 332.266 4.42187 332.891 5.42188C333.547 6.39062 333.875 7.5625 333.875 8.9375C333.875 10.3125 333.594 11.5938 333.031 12.7812C332.469 13.9688 331.734 14.9688 330.828 15.7812C329.953 16.5938 329.047 17.1562 328.109 17.4688C327.859 17.5625 327.812 17.7344 327.969 17.9844C328.656 19.1406 329.188 20.0156 329.562 20.6094C329.938 21.2031 330.25 21.6875 330.5 22.0625C330.781 22.4062 331.109 22.8438 331.484 23.375C331.859 23.875 332.391 24.6406 333.078 25.6719C333.609 26.4219 334.234 27.1719 334.953 27.9219C335.703 28.6406 336.5 29.25 337.344 29.75C338.219 30.2188 339.047 30.4531 339.828 30.4531C339.953 30.5781 340.016 30.8594 340.016 31.2969C340.016 31.6719 339.953 31.9844 339.828 32.2344C339.609 32.2656 339.359 32.2812 339.078 32.2812C338.828 32.3125 338.531 32.3281 338.188 32.3281ZM321.641 15.6875H322.906C324.125 15.6875 325.062 15.1562 325.719 14.0938C326.406 13.0312 326.75 11.625 326.75 9.875C326.75 5.71875 325.297 3.64062 322.391 3.64062C321.297 3.64062 320.578 3.76562 320.234 4.01562C319.859 4.29688 319.672 5.82812 319.672 8.60938V13.6719C319.672 14.5469 319.844 15.1094 320.188 15.3594C320.562 15.5781 321.047 15.6875 321.641 15.6875Z" fill="white"></path>
</svg>